<svg width="140" height="67" viewBox="0 0 140 67" fill="none" xmlns="http://www.w3.org/2000/svg">
<path d="M15.2879 56.8959C12.4735 56.8959 10.1919 54.6341 10.1919 51.8439L10.1919 15.1561C10.1919 12.3659 12.4735 10.1041 15.2879 10.1041H17.8665V13.9537H14.9006L14.9006 53.0463H17.8665V56.8959H15.2879Z" fill="#FF7F00"/>
<path d="M29.9341 35.5663C28.1199 35.5663 26.7032 35.3036 25.684 34.7782C24.6648 34.2325 23.9513 33.3636 23.5437 32.1713C23.136 30.979 22.9321 29.4129 22.9321 27.4729C22.9321 25.5127 23.1665 23.9668 23.6354 22.8352C24.1042 21.6833 24.8482 20.8649 25.8674 20.3799C26.907 19.8747 28.2626 19.6221 29.9341 19.6221C30.4029 19.6221 30.9329 19.6524 31.524 19.713C32.1152 19.7736 32.7063 19.8545 33.2975 19.9555C33.8886 20.0566 34.3982 20.1576 34.8263 20.2586L34.6734 23.9567C34.2657 23.9163 33.8071 23.8759 33.2975 23.8355C32.7879 23.7951 32.2986 23.7647 31.8298 23.7445C31.361 23.7041 30.9839 23.6839 30.6985 23.6839C29.9239 23.6839 29.3124 23.8052 28.8639 24.0477C28.4155 24.2902 28.0995 24.6943 27.916 25.2601C27.7326 25.8058 27.6409 26.5434 27.6409 27.4729C27.6409 28.4429 27.7224 29.231 27.8855 29.8373C28.0689 30.4233 28.3747 30.8477 28.8028 31.1104C29.2512 31.3529 29.8831 31.4741 30.6985 31.4741C30.9839 31.4741 31.361 31.464 31.8298 31.4438C32.319 31.4034 32.8184 31.363 33.328 31.3226C33.858 31.2822 34.3269 31.2518 34.7345 31.2316L34.8568 34.8994C34.4492 35.0005 33.9497 35.1015 33.3586 35.2025C32.7879 35.2834 32.1967 35.3642 31.5852 35.445C30.9737 35.5259 30.4233 35.5663 29.9341 35.5663Z" fill="white"/>
<path d="M37.2165 35.2025V19.9555H41.864V20.8952C42.1698 20.6931 42.5469 20.5011 42.9954 20.3193C43.4642 20.1172 43.9534 19.9555 44.463 19.8343C44.993 19.6928 45.4924 19.6221 45.9613 19.6221C46.8785 19.6221 47.6226 19.7534 48.1933 20.0161C48.7845 20.2586 49.2635 20.6123 49.6304 21.0771C49.9973 20.8548 50.4458 20.6325 50.9757 20.4102C51.5261 20.1879 52.1173 20.006 52.7492 19.8646C53.3811 19.7029 54.0028 19.6221 54.6143 19.6221C55.7558 19.6221 56.6935 19.7736 57.4273 20.0768C58.1815 20.3597 58.7625 20.8245 59.1702 21.4711C59.5982 22.0976 59.8938 22.8958 60.0569 23.8658C60.2199 24.8358 60.3015 25.9876 60.3015 27.3214V35.2025H55.6539V27.7761C55.6539 26.8263 55.6029 26.0483 55.501 25.442C55.3991 24.8358 55.1953 24.3912 54.8895 24.1083C54.5837 23.8052 54.1455 23.6536 53.5747 23.6536C53.2486 23.6536 52.9122 23.6839 52.5657 23.7445C52.2192 23.8052 51.893 23.886 51.5873 23.987C51.3019 24.0881 51.0573 24.1891 50.8534 24.2902C50.9757 24.6539 51.0573 25.1591 51.0981 25.8058C51.1388 26.4322 51.1592 27.0789 51.1592 27.7457V35.2025H46.481V27.8367C46.481 26.8465 46.4301 26.0483 46.3282 25.442C46.2262 24.8358 46.0224 24.3912 45.7166 24.1083C45.4313 23.8052 45.0032 23.6536 44.4324 23.6536C44.1063 23.6536 43.7802 23.6839 43.454 23.7445C43.1279 23.8052 42.8323 23.886 42.5673 23.987C42.3023 24.0881 42.0781 24.179 41.8946 24.2598V35.2025H37.2165Z" fill="white"/>
<path d="M63.1644 35.2025V19.9555H67.8426V35.2025H63.1644ZM63.1644 17.8337V14.1356H67.8426V17.8337H63.1644Z" fill="white"/>
<path d="M70.9301 35.2025V13.8931H75.6082V35.2025H70.9301Z" fill="white"/>
<path d="M78.7831 35.2025V13.8931H83.4613V35.2025H78.7831Z" fill="white"/>
<path d="M90.7945 35.5663C89.123 35.5663 87.8694 35.1621 87.0337 34.3538C86.2183 33.5455 85.8106 32.3128 85.8106 30.6557C85.8106 29.4836 86.0247 28.5844 86.4527 27.9579C86.9012 27.3113 87.5433 26.8465 88.379 26.5636C89.2148 26.2807 90.2238 26.1089 91.4061 26.0483L94.8306 25.7754V24.9873C94.8306 24.3811 94.6573 23.9567 94.3108 23.7142C93.9847 23.4515 93.4954 23.3202 92.8431 23.3202C92.252 23.3202 91.5793 23.3404 90.8251 23.3808C90.0709 23.4212 89.3269 23.4717 88.5931 23.5323C87.8592 23.593 87.2273 23.6536 86.6973 23.7142L86.5444 20.5011C87.0948 20.3597 87.7471 20.2283 88.5013 20.1071C89.2759 19.9656 90.0811 19.8545 90.9168 19.7736C91.7526 19.6726 92.5374 19.6221 93.2712 19.6221C94.5962 19.6221 95.7173 19.7837 96.6346 20.1071C97.5723 20.4102 98.2857 20.9356 98.7749 21.6833C99.2641 22.4108 99.5088 23.4313 99.5088 24.7448V31.4135C99.5699 31.656 99.7126 31.848 99.9368 31.9894C100.181 32.1107 100.446 32.2016 100.732 32.2623L100.64 35.3541C100.334 35.3743 100.008 35.3945 99.6616 35.4147C99.3151 35.4551 98.989 35.4652 98.6832 35.445C98.3774 35.445 98.1226 35.4349 97.9188 35.4147C97.3888 35.3541 96.9302 35.2328 96.5429 35.051C96.1759 34.8489 95.9008 34.6468 95.7173 34.4447C95.3912 34.5862 94.9631 34.7479 94.4331 34.9297C93.9031 35.1116 93.3222 35.2632 92.6903 35.3844C92.0787 35.5057 91.4468 35.5663 90.7945 35.5663ZM91.9564 32.2016C92.303 32.2016 92.6495 32.1612 92.996 32.0804C93.3629 31.9995 93.7095 31.9086 94.0356 31.8076C94.3618 31.7065 94.6268 31.6156 94.8306 31.5348V28.5339L92.1399 28.7764C91.5691 28.837 91.1513 29.0189 90.8863 29.322C90.6213 29.6049 90.4888 30.009 90.4888 30.5345C90.4888 31.0397 90.6111 31.4438 90.8557 31.7469C91.1003 32.0501 91.4672 32.2016 91.9564 32.2016Z" fill="white"/>
<path d="M102.758 35.2025V19.9555H107.406V20.8952C107.732 20.6931 108.119 20.5011 108.568 20.3193C109.016 20.1172 109.485 19.9555 109.974 19.8343C110.484 19.6928 110.963 19.6221 111.411 19.6221C112.492 19.6221 113.389 19.7635 114.102 20.0464C114.815 20.3092 115.386 20.7436 115.814 21.3499C116.242 21.9561 116.548 22.7543 116.731 23.7445C116.915 24.7347 117.007 25.9371 117.007 27.3517V35.2025H112.329V27.6245C112.329 26.6747 112.267 25.9068 112.145 25.3208C112.023 24.7347 111.809 24.3104 111.503 24.0477C111.197 23.7849 110.759 23.6536 110.188 23.6536C109.862 23.6536 109.526 23.6839 109.179 23.7445C108.833 23.8052 108.507 23.886 108.201 23.987C107.895 24.0881 107.64 24.1891 107.436 24.2902V35.2025H102.758Z" fill="white"/>
<path d="M67.0346 53.7031C65.7097 53.7031 64.6701 53.4202 63.9159 52.8544C63.182 52.2683 62.6623 51.4095 62.3565 50.2778C62.0507 49.1462 61.8978 47.7215 61.8978 46.0038V38.0923H66.576V45.7916C66.576 46.7616 66.627 47.5295 66.7289 48.0953C66.8308 48.6612 67.0347 49.0653 67.3404 49.3078C67.6462 49.5301 68.0844 49.6413 68.6552 49.6413C69.1852 49.6413 69.6948 49.5806 70.184 49.4594C70.6732 49.3179 71.0605 49.1765 71.3459 49.035V38.0923H76.024V53.3393H71.3765V52.4603C70.6834 52.824 70.0005 53.1171 69.3279 53.3393C68.6756 53.5818 67.9112 53.7031 67.0346 53.7031Z" fill="white"/>
<path d="M79.011 53.3393V38.0923H83.6891V53.3393H79.011Z" fill="white"/>
<path d="M91.6688 53.7031C90.3438 53.7031 89.3042 53.4202 88.55 52.8544C87.8162 52.2683 87.2964 51.4095 86.9906 50.2778C86.6849 49.1462 86.532 47.7215 86.532 46.0038V38.0923H91.2101V45.7916C91.2101 46.7616 91.2611 47.5295 91.363 48.0953C91.4649 48.6612 91.6688 49.0653 91.9745 49.3078C92.2803 49.5301 92.7186 49.6413 93.2893 49.6413C93.8193 49.6413 94.3289 49.5806 94.8181 49.4594C95.3073 49.3179 95.6946 49.1765 95.98 49.035V38.0923H100.658V53.3393H96.0106V52.4603C95.3175 52.824 94.6347 53.1171 93.962 53.3393C93.3097 53.5818 92.5453 53.7031 91.6688 53.7031Z" fill="white"/>
<path d="M102.453 53.3393L106.305 45.7613L102.453 38.0923H107.498L109.883 43.1848L112.298 38.0923H117.007L113.277 45.6704L116.976 53.3393H111.901L109.485 48.5197L107.223 53.3393H102.453Z" fill="white"/>
<path d="M54.7519 47.964H59.848V53.016H54.7519V47.964Z" fill="white"/>
<path d="M124.712 56.8959C127.527 56.8959 129.808 54.6341 129.808 51.8439L129.808 15.1561C129.808 12.3659 127.527 10.1041 124.712 10.1041H122.133V13.9537H125.099L125.099 53.0463H122.133V56.8959H124.712Z" fill="#FF7F00"/>
</svg>
